<svg width="48" height="48" viewBox="0 0 48 48" fill="none" xmlns="http://www.w3.org/2000/svg">
<g clip-path="url(#clip0_31_77)">
<path d="M47.5 25.3338C47.5 12.4438 37.0938 2 24.25 2C11.4062 2 1 12.4438 1 25.3338C1 36.9801 9.50219 46.6335 20.6172 48.3854V32.079H14.7109V25.3338H20.6172V20.1929C20.6172 14.3453 24.0859 11.1152 29.3988 11.1152C31.9431 11.1152 34.6038 11.5706 34.6038 11.5706V17.31H31.6712C28.7838 17.31 27.8828 19.109 27.8828 20.954V25.3338H34.3309L33.2997 32.079H27.8828V48.3854C38.9978 46.6335 47.5 36.9801 47.5 25.3338Z" fill="#CBFF8B"/>
</g>
<defs>
<clipPath id="clip0_31_77">
<rect width="48" height="48" fill="white"/>
</clipPath>
</defs>
</svg>
