<svg width="48" height="48" viewBox="0 0 48 48" fill="none" xmlns="http://www.w3.org/2000/svg">
<path d="M42 3H5.99062C4.34062 3 3 4.35938 3 6.02813V41.9719C3 43.6406 4.34062 45 5.99062 45H42C43.65 45 45 43.6406 45 41.9719V6.02813C45 4.35938 43.65 3 42 3ZM15.6937 39H9.46875V18.9562H15.7031V39H15.6937ZM12.5812 16.2188C10.5844 16.2188 8.97188 14.5969 8.97188 12.6094C8.97188 10.6219 10.5844 9 12.5812 9C14.5687 9 16.1906 10.6219 16.1906 12.6094C16.1906 14.6062 14.5781 16.2188 12.5812 16.2188ZM39.0281 39H32.8031V29.25C32.8031 26.925 32.7562 23.9344 29.5687 23.9344C26.325 23.9344 25.8281 26.4656 25.8281 29.0813V39H19.6031V18.9562H25.575V21.6937H25.6594C26.4937 20.1187 28.5281 18.4594 31.5563 18.4594C37.8563 18.4594 39.0281 22.6125 39.0281 28.0125V39Z" fill="#CBFF8B"/>
</svg>
